<svg width="64" height="64" viewBox="0 0 64 64" fill="none" xmlns="http://www.w3.org/2000/svg">
<path d="M26.6667 48.0007C31.4 48.0001 35.997 46.4155 39.7253 43.4993L51.448 55.222L55.2187 51.4513L43.496 39.7287C46.4137 36 47.9993 31.4019 48 26.6673C48 14.9047 38.4293 5.33398 26.6667 5.33398C14.904 5.33398 5.33334 14.9047 5.33334 26.6673C5.33334 38.43 14.904 48.0007 26.6667 48.0007ZM26.6667 10.6673C35.4907 10.6673 42.6667 17.8433 42.6667 26.6673C42.6667 35.4913 35.4907 42.6673 26.6667 42.6673C17.8427 42.6673 10.6667 35.4913 10.6667 26.6673C10.6667 17.8433 17.8427 10.6673 26.6667 10.6673Z" fill="black"/>
</svg>
