<svg width="69" height="78" viewBox="0 0 69 78" fill="none" xmlns="http://www.w3.org/2000/svg">
<path fill-rule="evenodd" clip-rule="evenodd" d="M43.178 16.6721C42.923 16.4737 42.6314 16.3275 42.3199 16.2419C42.0084 16.1563 41.6831 16.1329 41.3626 16.1731C41.042 16.2133 40.7325 16.3162 40.4518 16.4761C40.1711 16.636 39.9246 16.8496 39.7265 17.1048L33.5954 24.9862C32.7943 26.0177 31.6888 26.7709 30.4357 27.1389C29.1826 27.5069 27.8454 27.471 26.6137 27.0365L27.8601 25.4656L38.19 15.1357C38.6378 14.672 38.8856 14.051 38.88 13.4065C38.8744 12.7619 38.6159 12.1453 38.1601 11.6895C37.7043 11.2337 37.0877 10.9752 36.4431 10.9696C35.7986 10.964 35.1776 11.2118 34.7139 11.6596L24.384 21.9895L22.8107 23.2359C22.3764 22.004 22.3409 20.6666 22.7094 19.4135C23.0778 18.1603 23.8315 17.055 24.8634 16.2542L32.7473 10.1231C33.2456 9.7174 33.5653 9.13266 33.6379 8.49413C33.7104 7.8556 33.53 7.21405 33.1353 6.70689C32.7406 6.19973 32.1631 5.86728 31.5263 5.78074C30.8895 5.69419 30.2442 5.86044 29.7284 6.24387L21.8446 12.375C19.7759 13.9844 18.3405 16.2713 17.7907 18.8339C17.2409 21.3966 17.6117 24.0711 18.838 26.3875L2.1779 39.601C1.5427 40.1041 1.02112 40.736 0.647419 41.455C0.273716 42.174 0.0563437 42.9639 0.00957657 43.7729C-0.0371905 44.5819 0.0877057 45.3916 0.376064 46.1489C0.664422 46.9062 1.10972 47.5939 1.68271 48.1669C2.2557 48.7399 2.94342 49.1852 3.70071 49.4735C4.45799 49.7619 5.26772 49.8868 6.0767 49.84C6.88568 49.7933 7.67561 49.5759 8.39463 49.2022C9.11364 48.8285 9.74547 48.3069 10.2486 47.6717L23.4622 31.0116C25.7785 32.2379 28.453 32.6088 31.0157 32.0589C33.5783 31.5091 35.8653 30.0737 37.4747 28.005L43.6082 20.1212C44.0081 19.6064 44.1872 18.9538 44.106 18.3071C44.0249 17.6603 43.6926 17.0722 43.178 16.6721ZM10.8534 38.9938L6.3964 44.616C6.32421 44.7085 6.23318 44.7847 6.12934 44.8394C6.0255 44.8941 5.91123 44.9261 5.79408 44.9333C5.67694 44.9405 5.55961 44.9227 5.44985 44.8811C5.34009 44.8396 5.24042 44.7752 5.15743 44.6922C5.07444 44.6092 5.01004 44.5095 4.96847 44.3998C4.92691 44.29 4.90914 44.1727 4.91634 44.0555C4.92355 43.9384 4.95556 43.8241 5.01025 43.7203C5.06495 43.6164 5.14108 43.5254 5.23361 43.4532L10.8534 38.9938Z" fill="black"/>
<path fill-rule="evenodd" clip-rule="evenodd" d="M42.826 48.8392L27.5248 62.1864C27.0057 62.6398 26.3965 62.9783 25.7373 63.1796C25.0781 63.3809 24.3838 63.4404 23.6999 63.3543C23.0161 63.2682 22.3582 63.0385 21.7694 62.6801C21.1806 62.3217 20.6744 61.8428 20.2838 61.2749C19.8932 60.707 19.6272 60.0629 19.5032 59.3849C19.3793 58.7068 19.4001 58.0103 19.5644 57.3409C19.7288 56.6715 20.0328 56.0444 20.4567 55.5009C20.8805 54.9574 21.4145 54.5096 22.0237 54.1871L39.9624 44.6751C39.2856 41.7705 39.8855 37.6433 43.9745 34.8295C46.4497 33.1291 49.2438 32.3022 51.7564 32.3078C54.2008 32.3135 56.7631 33.13 58.1908 35.206C59.6188 37.2799 59.464 39.9669 58.5951 42.2494C57.7012 44.5976 55.9289 46.9129 53.4537 48.6133C49.3623 51.4288 45.2962 50.5105 42.826 48.8392Z" fill="black"/>
</svg>
