<svg width="18" height="20" viewBox="0 0 93 60" fill="none" xmlns="http://www.w3.org/2000/svg">
<path fill-rule="evenodd" clip-rule="evenodd" d="M72.1405 13.6799C71.9862 13.5585 71.8096 13.469 71.621 13.4166C71.4325 13.3642 71.2355 13.3498 71.0414 13.3744C70.8474 13.399 70.66 13.4621 70.49 13.5599C70.3201 13.6578 70.1709 13.7885 70.0509 13.9448L66.3391 18.7691C65.8541 19.4005 65.1848 19.8615 64.4262 20.0867C63.6675 20.312 62.858 20.2901 62.1123 20.0241L62.8669 19.0625L69.1207 12.7394C69.3919 12.4556 69.5419 12.0755 69.5385 11.681C69.5351 11.2864 69.3786 10.909 69.1026 10.63C68.8267 10.351 68.4534 10.1927 68.0632 10.1893C67.6729 10.1859 67.297 10.3376 67.0163 10.6117L60.7624 16.9347L59.8099 17.6977C59.547 16.9436 59.5255 16.125 59.7486 15.3579C59.9716 14.5909 60.4279 13.9143 61.0526 13.4241L65.8256 9.67119C66.1274 9.42284 66.3209 9.06491 66.3648 8.67406C66.4087 8.28321 66.2995 7.89051 66.0606 7.58007C65.8216 7.26963 65.4719 7.06613 65.0864 7.01316C64.7009 6.96018 64.3102 7.06194 63.998 7.29665L59.225 11.0496C57.9726 12.0347 57.1036 13.4346 56.7707 15.0032C56.4378 16.5718 56.6623 18.2089 57.4048 19.6268L47.3185 27.715C46.934 28.023 46.6182 28.4097 46.392 28.8498C46.1657 29.2899 46.0341 29.7735 46.0058 30.2687C45.9775 30.7638 46.0531 31.2595 46.2277 31.723C46.4022 32.1866 46.6718 32.6075 47.0187 32.9583C47.3656 33.309 47.782 33.5816 48.2405 33.7581C48.6989 33.9346 49.1891 34.011 49.6789 33.9824C50.1687 33.9538 50.6469 33.8207 51.0822 33.592C51.5175 33.3632 51.9 33.044 52.2046 32.6552L60.2043 22.4573C61.6067 23.2079 63.2258 23.4349 64.7773 23.0984C66.3288 22.7618 67.7133 21.8832 68.6876 20.6169L72.401 15.7911C72.6431 15.476 72.7515 15.0766 72.7024 14.6807C72.6532 14.2848 72.4521 13.9248 72.1405 13.6799ZM52.5708 27.3433L49.8725 30.7847C49.8288 30.8414 49.7736 30.888 49.7108 30.9214C49.6479 30.9549 49.5787 30.9745 49.5078 30.9789C49.4369 30.9833 49.3659 30.9725 49.2994 30.947C49.233 30.9216 49.1726 30.8821 49.1224 30.8314C49.0721 30.7806 49.0331 30.7195 49.008 30.6524C48.9828 30.5852 48.9721 30.5134 48.9764 30.4416C48.9808 30.3699 49.0002 30.3 49.0333 30.2364C49.0664 30.1729 49.1125 30.1172 49.1685 30.073L52.5708 27.3433Z" fill="black"/>
<path fill-rule="evenodd" clip-rule="evenodd" d="M73.1247 41.6403L60.5657 49.9264C60.1396 50.2079 59.6587 50.3962 59.1547 50.4787C58.6506 50.5612 58.1348 50.5361 57.6411 50.4052C57.1475 50.2742 56.6871 50.0403 56.2902 49.7188C55.8933 49.3973 55.569 48.9955 55.3384 48.5397C55.1079 48.084 54.9763 47.5846 54.9524 47.0744C54.9286 46.5642 55.0129 46.0547 55.1999 45.5794C55.3868 45.1041 55.6722 44.6738 56.0373 44.3166C56.4024 43.9594 56.839 43.6835 57.3182 43.507L71.4342 38.2986C71.2249 36.0985 72.0743 33.1271 75.3558 31.4658C77.342 30.4622 79.4759 30.1318 81.3204 30.3847C83.115 30.6311 84.9158 31.4846 85.7586 33.1505C86.6019 34.815 86.222 36.7729 85.3578 38.363C84.4688 39.9989 82.9378 41.5236 80.9517 42.5272C77.6682 44.1895 74.7731 43.1124 73.1247 41.6403Z" fill="black"/>
<path d="M18.8833 0C16.4346 0 14.2052 1.24547 13.0502 3.19224L12.5419 4.04951L11.6641 3.57812C10.8439 3.13331 9.90832 2.89762 8.9727 2.89762C5.70381 2.89762 3.04712 5.62079 3.04712 9.04525C3.04712 12.1069 5.19557 14.6603 8.07174 15.1224L8.9496 15.261V21.4306C15.6375 20.1482 22.3486 20.0904 29.0481 21.4306V13.3778L29.6025 13.0774C31.416 12.1185 32.6173 10.062 32.6173 7.74548C32.6173 4.41807 30.2263 1.83932 27.3732 1.83932C26.6224 1.83932 25.8716 2.02533 25.1901 2.38465L24.4739 2.75436L23.9426 2.16629C22.6951 0.806436 20.847 0 18.8833 0ZM18.9988 22.5051C16.0418 22.5051 13.0964 22.7824 10.1393 23.3138C10.0354 24.0071 9.98918 24.7234 9.98918 25.4628C9.98918 28.8133 11.0519 31.8403 12.7152 33.9777C14.3785 36.1151 16.5847 37.3629 18.9988 37.3629C21.413 37.3629 23.6192 36.1151 25.2825 33.9777C26.9458 31.8403 28.0085 28.8133 28.0085 25.4628C28.0085 24.7234 27.9508 23.9955 27.8584 23.3023C24.9013 22.7593 21.9559 22.4935 18.9988 22.5051ZM13.5353 37.6287L3.23193 41.0601L0 54H26.5762L24.9013 42.2501L26.9574 41.9497L28.6785 54H38L34.7658 41.0601L24.4624 37.6287C22.8684 38.7725 20.9971 39.4426 18.9988 39.4426C17.0005 39.4426 15.1293 38.7725 13.5353 37.6287ZM21.54 43.7174C21.8464 43.7174 22.1402 43.8391 22.3568 44.0558C22.5734 44.2724 22.6951 44.5663 22.6951 44.8727C22.6951 45.1791 22.5734 45.473 22.3568 45.6897C22.1402 45.9063 21.8464 46.0281 21.54 46.0281C21.2337 46.0281 20.9399 45.9063 20.7233 45.6897C20.5066 45.473 20.3849 45.1791 20.3849 44.8727C20.3849 44.5663 20.5066 44.2724 20.7233 44.0558C20.9399 43.8391 21.2337 43.7174 21.54 43.7174ZM22.3486 49.032C22.6549 49.032 22.9487 49.1537 23.1654 49.3704C23.382 49.5871 23.5037 49.8809 23.5037 50.1873C23.5037 50.4938 23.382 50.7876 23.1654 51.0043C22.9487 51.221 22.6549 51.3427 22.3486 51.3427C22.0422 51.3427 21.7484 51.221 21.5318 51.0043C21.3152 50.7876 21.1935 50.4938 21.1935 50.1873C21.1935 49.8809 21.3152 49.5871 21.5318 49.3704C21.7484 49.1537 22.0422 49.032 22.3486 49.032Z" fill="black"/>
</svg>
