<svg width="24" height="27" viewBox="0 0 24 27" fill="none" xmlns="http://www.w3.org/2000/svg">
<path fill-rule="evenodd" clip-rule="evenodd" d="M12.0344 0C14.5135 0 16.6556 1.37531 17.7335 3.38344C19.4263 3.47449 21.0192 4.19867 22.1848 5.40707C23.3503 6.61547 23.9999 8.21625 24 9.88031L23.9794 10.3916C23.8931 11.4526 23.5426 12.4766 22.9586 13.3735C22.3747 14.2704 21.5751 15.0127 20.6304 15.5351V24.0469C20.6304 24.8301 20.3134 25.5812 19.7492 26.135C19.185 26.6889 18.4197 27 17.6218 27H6.44699C5.64906 27 4.88381 26.6889 4.31959 26.135C3.75537 25.5812 3.4384 24.8301 3.4384 24.0469V15.5739C2.47598 15.0564 1.65975 14.3122 1.06315 13.4082C0.466543 12.5041 0.108292 11.4687 0.0206303 10.395L0 9.88031C0.000514293 8.20514 0.659198 6.59469 1.83894 5.38421C3.01868 4.17373 4.62858 3.45647 6.33352 3.38175C6.88007 2.36204 7.69989 1.50816 8.70453 0.912204C9.70918 0.316249 10.8605 0.000839677 12.0344 0ZM6.01719 24.0469C6.01719 24.2798 6.20974 24.4688 6.44699 24.4688H17.6218C17.7358 24.4688 17.8451 24.4243 17.9257 24.3452C18.0063 24.2661 18.0516 24.1588 18.0516 24.0469V21.0938H6.01719V24.0469ZM12.0344 2.53125C11.2312 2.53178 10.4481 2.77773 9.79372 3.23494C9.13937 3.69216 8.64626 4.33797 8.38281 5.08275L8.04928 6.02775L7.0384 5.9265L6.62751 5.90625C5.55386 5.9067 4.52432 6.32554 3.76514 7.07072C3.00596 7.8159 2.57925 8.82646 2.5788 9.88031L2.59083 10.1942C2.71461 11.7467 3.75473 13.0511 5.18682 13.5861L6.01719 13.8983V18.5625H18.0516V13.8881L18.8648 13.5692C19.7084 13.2426 20.4158 12.6472 20.8733 11.8786C21.3308 11.11 21.5119 10.2128 21.3876 9.33103C21.2633 8.44926 20.8407 7.63408 20.1877 7.01636C19.5347 6.39864 18.6891 6.01422 17.7868 5.92481L17.3742 5.90625C17.2573 5.90625 17.137 5.91187 17.0132 5.92312L16.0126 6.0075L15.6825 5.07937C15.4187 4.33577 14.9258 3.69107 14.2722 3.23454C13.6186 2.77801 12.8366 2.53224 12.0344 2.53125Z" fill="#A3A3A3"/>
</svg>
