<svg width="62" height="63" viewBox="0 0 62 63" fill="none" xmlns="http://www.w3.org/2000/svg">
<path fill-rule="evenodd" clip-rule="evenodd" d="M26.1405 14.2053C25.9862 14.0839 25.8096 13.9944 25.621 13.942C25.4325 13.8896 25.2355 13.8752 25.0414 13.8998C24.8474 13.9244 24.66 13.9875 24.49 14.0853C24.3201 14.1832 24.1709 14.3139 24.0509 14.4701L20.3391 19.2945C19.8541 19.9259 19.1848 20.3869 18.4262 20.6121C17.6675 20.8374 16.858 20.8155 16.1123 20.5494L16.8669 19.5879L23.1207 13.2648C23.3919 12.981 23.5419 12.6009 23.5385 12.2064C23.5351 11.8118 23.3786 11.4344 23.1026 11.1554C22.8267 10.8764 22.4534 10.7181 22.0632 10.7147C21.6729 10.7113 21.297 10.863 21.0163 11.1371L14.7624 17.4601L13.8099 18.2231C13.547 17.469 13.5255 16.6504 13.7486 15.8833C13.9716 15.1163 14.4279 14.4397 15.0526 13.9495L19.8256 10.1966C20.1273 9.94823 20.3209 9.5903 20.3648 9.19945C20.4087 8.8086 20.2995 8.4159 20.0606 8.10546C19.8216 7.79502 19.4719 7.59152 19.0864 7.53855C18.7009 7.48557 18.3102 7.58733 17.998 7.82204L13.225 11.575C11.9726 12.5601 11.1036 13.9599 10.7707 15.5286C10.4378 17.0972 10.6623 18.7343 11.4048 20.1522L1.31853 28.2404C0.933972 28.5483 0.618201 28.9351 0.391956 29.3752C0.165711 29.8153 0.0341112 30.2989 0.00579778 30.794C-0.0225156 31.2892 0.0530982 31.7849 0.227674 32.2484C0.40225 32.712 0.671838 33.1329 1.01873 33.4837C1.36563 33.8344 1.78198 34.107 2.24046 34.2835C2.69893 34.46 3.18915 34.5364 3.67891 34.5078C4.16868 34.4792 4.64692 34.3461 5.08222 34.1174C5.51752 33.8886 5.90003 33.5694 6.20464 33.1805L14.2043 22.9827C15.6067 23.7333 17.2258 23.9603 18.7773 23.6238C20.3288 23.2872 21.7133 22.4086 22.6876 21.1423L26.401 16.3165C26.6431 16.0014 26.7515 15.602 26.7024 15.2061C26.6532 14.8102 26.4521 14.4502 26.1405 14.2053ZM6.57077 27.8687L3.87247 31.3101C3.82876 31.3667 3.77365 31.4134 3.71078 31.4468C3.64792 31.4803 3.57873 31.4999 3.50781 31.5043C3.4369 31.5087 3.36586 31.4978 3.29941 31.4724C3.23296 31.447 3.17262 31.4075 3.12238 31.3567C3.07213 31.3059 3.03314 31.2449 3.00798 31.1777C2.98282 31.1106 2.97206 31.0387 2.97642 30.967C2.98078 30.8953 3.00016 30.8254 3.03327 30.7618C3.06639 30.6983 3.11248 30.6425 3.1685 30.5984L6.57077 27.8687Z" fill="black"/>
<g clip-path="url(#clip0_1029_39)">
<path fill-rule="evenodd" clip-rule="evenodd" d="M28.039 35.2595L15.4801 43.5455C15.0539 43.8271 14.573 44.0153 14.069 44.0978C13.5649 44.1803 13.0491 44.1553 12.5554 44.0243C12.0618 43.8934 11.6014 43.6594 11.2045 43.3379C10.8076 43.0164 10.4833 42.6146 10.2527 42.1588C10.0222 41.7031 9.89062 41.2037 9.86674 40.6935C9.84286 40.1833 9.92718 39.6739 10.1142 39.1986C10.3011 38.7233 10.5865 38.2929 10.9516 37.9357C11.3167 37.5785 11.7533 37.3026 12.2326 37.1261L26.3485 31.9178C26.1392 29.7177 26.9886 26.7462 30.2702 25.0849C32.2563 24.0814 34.3902 23.7509 36.2347 24.0039C38.0293 24.2503 39.8301 25.1037 40.6729 26.7697C41.5162 28.4341 41.1363 30.392 40.2721 31.9822C39.3831 33.6181 37.8521 35.1428 35.866 36.1463C32.5825 37.8086 29.6874 36.7315 28.039 35.2595Z" fill="black"/>
</g>
<defs>
<clipPath id="clip0_1029_39">
<rect width="37.1879" height="37.1879" fill="white" transform="translate(2 46.334) rotate(-71.8343)"/>
</clipPath>
</defs>
</svg>
