<svg width="22" height="22" viewBox="0 0 22 22" fill="none" xmlns="http://www.w3.org/2000/svg">
<path d="M11 21.0002C16.523 21.0002 21 17.3067 21 12.7502C21 9.52919 18.7625 6.85069 15.5 5.49219L13.75 6.25019L14 9.00019L10.75 8.00019L7.5 9.00019V6.25019L6 5.49219C3.011 6.91869 1 9.69669 1 12.7502C1 17.3067 5.477 21.0002 11 21.0002Z" stroke="#FF5B5B" stroke-width="2" stroke-linecap="round" stroke-linejoin="round"/>
<path d="M10.75 1L12.6545 3.5585L17 3.955L13.8315 6.2415L14.75 9.5L10.75 8L6.75 9.5L7.6685 6.2415L4.5 3.955L8.8455 3.5585L10.75 1Z" stroke="#FF5B5B" stroke-width="2" stroke-linecap="round" stroke-linejoin="round"/>
</svg>
