<svg width="27" height="26" viewBox="0 0 27 26" fill="none" xmlns="http://www.w3.org/2000/svg">
<path d="M13.25 24.75C20.1527 24.75 25.75 19.3777 25.75 12.75C25.75 6.12228 20.1527 0.75 13.25 0.75C6.34727 0.75 0.75 6.12228 0.75 12.75C0.75 19.3777 6.34612 24.75 13.25 24.75Z" stroke="#008638" stroke-width="1.5" stroke-linecap="round" stroke-linejoin="round"/>
<path d="M6.8547 16.9566C7.36826 16.9566 7.86078 16.7607 8.22392 16.4121C8.58706 16.0635 8.79107 15.5907 8.79107 15.0976C8.79107 14.6046 8.58706 14.1318 8.22392 13.7832C7.86078 13.4346 7.36826 13.2387 6.8547 13.2387C6.34115 13.2387 5.84862 13.4346 5.48548 13.7832C5.12234 14.1318 4.91833 14.6046 4.91833 15.0976C4.91833 15.5907 5.12234 16.0635 5.48548 16.4121C5.84862 16.7607 6.34115 16.9566 6.8547 16.9566ZM19.8955 8.40545C19.896 9.17523 19.62 9.92164 19.114 10.5188C18.608 11.1159 17.903 11.5273 17.1178 11.6834C16.3326 11.8396 15.5153 11.731 14.8038 11.3761C14.0923 11.0211 13.5301 10.4414 13.2121 9.73474C12.787 9.87515 12.3304 9.90308 11.8902 9.81558C11.45 9.72808 11.0425 9.52839 10.7104 9.23749C10.3784 8.94658 10.1341 8.5752 10.0032 8.16235C9.87225 7.7495 9.85957 7.31043 9.96646 6.89126C10.0734 6.47208 10.2959 6.08828 10.6106 5.78017C10.9254 5.47206 11.3208 5.25101 11.7552 5.14025C12.1897 5.02949 12.6472 5.03309 13.0797 5.1507C13.5123 5.2683 13.9038 5.49555 14.2133 5.80859C14.7244 5.40946 15.343 5.15765 15.9973 5.08237C16.6515 5.00709 17.3146 5.11143 17.9096 5.38328C18.5045 5.65514 19.007 6.08336 19.3587 6.61828C19.7104 7.1532 19.8958 7.77288 19.8955 8.40545Z" stroke="#008638" stroke-width="1.5" stroke-linecap="round" stroke-linejoin="round"/>
<path d="M17.2227 18.7677C17.5361 16.0011 20.759 17.1055 20.6212 14.2188" stroke="#008638" stroke-width="1.5" stroke-linecap="round"/>
<path d="M13.2501 16.0637C13.2039 16.0662 13.1576 16.0597 13.1141 16.0445C13.0706 16.0293 13.0308 16.0058 12.9971 15.9753C12.9634 15.9448 12.9366 15.908 12.9183 15.8672C12.8999 15.8264 12.8905 15.7824 12.8905 15.7379C12.8905 15.6935 12.8999 15.6495 12.9183 15.6087C12.9366 15.5679 12.9634 15.5311 12.9971 15.5006C13.0308 15.4701 13.0706 15.4466 13.1141 15.4314C13.1576 15.4162 13.2039 15.4097 13.2501 15.4122M13.2501 16.0637C13.2963 16.0662 13.3426 16.0597 13.3861 16.0445C13.4296 16.0293 13.4694 16.0058 13.5031 15.9753C13.5367 15.9448 13.5636 15.908 13.5819 15.8672C13.6002 15.8264 13.6097 15.7824 13.6097 15.7379C13.6097 15.6935 13.6002 15.6495 13.5819 15.6087C13.5636 15.5679 13.5367 15.5311 13.5031 15.5006C13.4694 15.4701 13.4296 15.4466 13.3861 15.4314C13.3426 15.4162 13.2963 15.4097 13.2501 15.4122M6.10624 7.65142C6.01967 7.64658 5.9383 7.61016 5.87879 7.54961C5.81928 7.48906 5.78613 7.40896 5.78613 7.32571C5.78613 7.24246 5.81928 7.16236 5.87879 7.10181C5.9383 7.04126 6.01967 7.00484 6.10624 7M6.10624 7.65142C6.19281 7.64658 6.27418 7.61016 6.33369 7.54961C6.3932 7.48906 6.42635 7.40896 6.42635 7.32571C6.42635 7.24246 6.3932 7.16236 6.33369 7.10181C6.27418 7.04126 6.19281 7.00484 6.10624 7M14.5544 21.1009C14.4643 21.1009 14.3778 21.0665 14.3141 21.0053C14.2503 20.9441 14.2145 20.8611 14.2145 20.7746C14.2145 20.6881 14.2503 20.6051 14.3141 20.5439C14.3778 20.4827 14.4643 20.4483 14.5544 20.4483M14.5544 21.1009C14.6445 21.1009 14.731 21.0665 14.7947 21.0053C14.8584 20.9441 14.8942 20.8611 14.8942 20.7746C14.8942 20.6881 14.8584 20.6051 14.7947 20.5439C14.731 20.4827 14.6445 20.4483 14.5544 20.4483" stroke="#008638" stroke-width="1.5" stroke-linecap="round" stroke-linejoin="round"/>
</svg>
